<svg width="48" height="48" viewBox="0 0 48 48" fill="none" xmlns="http://www.w3.org/2000/svg">
  <path d="M14 4H29L38 13V44H14V4Z" fill="#2A2D34" stroke="#8B8F99" stroke-width="1.5" stroke-linejoin="round"/>
  <path d="M29 4V13H38" fill="#3A3E47" stroke="#8B8F99" stroke-width="1.5" stroke-linejoin="round"/>
  <line x1="18" y1="21" x2="34" y2="21" stroke="#8B8F99" stroke-width="1.5" stroke-linecap="round"/>
  <line x1="18" y1="27" x2="34" y2="27" stroke="#8B8F99" stroke-width="1.5" stroke-linecap="round"/>
  <line x1="18" y1="33" x2="28" y2="33" stroke="#8B8F99" stroke-width="1.5" stroke-linecap="round"/>
  <circle cx="35" cy="36" r="11" fill="#F59E0B" stroke="#17181C" stroke-width="2.5"/>
  <path d="M35.5 29.5l1.1 3.9 3.9 1.1-3.9 1.1-1.1 3.9-1.1-3.9-3.9-1.1 3.9-1.1 1.1-3.9Z" fill="white"/>
  <path d="M41 30.5l0.5 1.7 1.7 0.5-1.7 0.5-0.5 1.7-0.5-1.7-1.7-0.5 1.7-0.5 0.5-1.7Z" fill="white"/>
</svg>
